<svg width="32" height="32" viewBox="0 0 32 32" fill="none" xmlns="http://www.w3.org/2000/svg">
  <rect width="32" height="32" rx="4" fill="#1e3a5f"/>
  <g transform="translate(4,4)">
    <!-- Skull -->
    <path d="M12 2C8.5 2 6 4.5 6 8c0 2 1 3.5 2 4.5l-1 3.5h8l-1-3.5c1-1 2-2.5 2-4.5 0-3.5-2.5-6-6-6z" fill="#f4e4bc"/>
    <!-- Eye sockets -->
    <circle cx="9.5" cy="7" r="1.5" fill="#1e3a5f"/>
    <circle cx="14.5" cy="7" r="1.5" fill="#1e3a5f"/>
    <!-- Nose -->
    <path d="M12 9.5L11 11h2l-1-1.5z" fill="#1e3a5f"/>
    <!-- Mouth -->
    <path d="M10 12h4c0 1-1 2-2 2s-2-1-2-2z" fill="#1e3a5f"/>
    <!-- Crossbones -->
    <g fill="#f4e4bc">
      <!-- Bone 1 -->
      <path d="M2 18h20l-2 2H4l-2-2z"/>
      <circle cx="2" cy="17" r="1"/>
      <circle cx="2" cy="19" r="1"/>
      <circle cx="22" cy="17" r="1"/>
      <circle cx="22" cy="19" r="1"/>
      <!-- Bone 2 (rotated) -->
      <path d="M6 22l12-12 1.5 1.5L7.5 23.5L6 22z"/>
      <circle cx="5.5" cy="20.5" r="1"/>
      <circle cx="7.5" cy="22.5" r="1"/>
      <circle cx="18.5" cy="9.5" r="1"/>
      <circle cx="16.5" cy="11.5" r="1"/>
    </g>
  </g>
  <!-- Golden accent -->
  <circle cx="16" cy="8" r="1" fill="#ffd700" opacity="0.8"/>
</svg> 